<svg xmlns="http://www.w3.org/2000/svg" version="1.0" width="793.000000pt" height="559.000000pt" viewBox="0 0 793.000000 559.000000" preserveAspectRatio="xMidYMid meet">

<g transform="translate(0.000000,559.000000) scale(0.100000,-0.100000)" fill="#0c4937" stroke="none">
<path d="M4653 5250 c-139 -25 -243 -88 -398 -244 -107 -108 -255 -294 -309 -388 -15 -25 -32 -51 -39 -56 -7 -6 -59 -8 -136 -3 l-124 6 -90 125 c-220 308 -418 486 -600 541 -81 25 -221 24 -238 -1 -6 -10 -8 -87 -5 -210 3 -150 9 -217 26 -290 12 -52 24 -113 27 -135 6 -47 2 -52 -107 -115 -272 -157 -500 -358 -685 -604 -193 -259 -316 -515 -390 -817 -52 -212 -58 -276 -52 -587 5 -300 13 -357 78 -587 54 -191 173 -448 281 -607 72 -107 198 -258 301 -361 172 -173 343 -296 573 -412 269 -136 553 -210 862 -225 361 -16 573 9 852 101 309 102 558 246 810 471 286 255 492 567 623 944 110 316 150 741 98 1034 -57 320 -91 431 -206 665 -220 450 -500 745 -979 1027 -54 32 -54 33 -25 161 33 147 49 283 49 414 l0 122 -30 16 c-39 20 -103 26 -167 15z m85 -180 c14 -385 -151 -776 -485 -1147 l-83 -91 22 -52 21 -51 44 43 c25 24 83 87 130 141 48 53 90 97 95 97 23 0 216 -449 271 -631 38 -126 74 -275 87 -359 6 -41 13 -90 17 -107 5 -30 3 -33 -21 -33 -14 0 -68 22 -120 49 -90 48 -394 228 -427 254 -9 7 -44 87 -77 177 -147 404 -371 904 -426 949 -11 9 -18 5 -34 -21 -42 -69 -214 -422 -263 -540 -60 -146 -183 -471 -193 -511 -12 -48 -57 -85 -221 -175 -284 -157 -356 -194 -363 -187 -28 28 30 336 103 544 81 231 234 591 251 591 5 0 65 -59 134 -130 69 -72 131 -130 137 -130 14 0 43 51 43 75 0 8 -43 60 -95 114 -142 149 -300 401 -383 611 -67 170 -125 538 -93 589 16 24 100 8 194 -37 70 -34 105 -60 195 -147 129 -124 322 -371 322 -413 0 -7 -12 -18 -27 -24 -158 -65 -318 -162 -343 -208 -10 -18 -8 -26 11 -46 31 -33 47 -30 110 17 74 56 146 91 262 128 135 43 222 54 321 41 151 -21 298 -79 424 -166 72 -51 95 -54 118 -19 14 22 15 30 4 49 -16 31 -147 117 -264 172 -52 25 -98 49 -101 54 -9 14 9 43 100 165 177 237 344 381 498 431 40 13 79 22 87 21 12 -2 16 -21 18 -87z m-937 -1012 c92 -148 332 -726 353 -854 7 -39 5 -44 -26 -67 -62 -46 -151 -68 -298 -74 -160 -6 -249 5 -350 47 -101 41 -104 44 -84 110 57 193 348 870 374 870 6 0 19 -15 31 -32z m398 -1042 c41 -49 64 -565 37 -825 -39 -369 -154 -708 -341 -1010 -73 -118 -106 -156 -129 -148 -39 15 -225 343 -309 547 -20 47 -51 148 -71 225 -83 330 -105 662 -67 997 12 103 24 194 27 203 8 21 49 19 119 -5 32 -11 97 -27 144 -36 159 -30 417 -5 520 51 33 18 56 19 70 1z m-2158 -831 c671 -122 1256 -553 1562 -1152 88 -172 132 -289 182 -485 41 -160 35 -178 -67 -178 -159 0 -433 53 -655 126 -141 47 -209 79 -353 164 -420 248 -756 627 -919 1038 -81 202 -150 458 -134 498 6 15 22 16 152 11 80 -3 185 -13 232 -22z m1893 -1192 c3 -10 12 -61 21 -113 27 -162 59 -244 174 -432 21 -35 22 -37 3 -47 -19 -10 -191 -36 -196 -30 -1 2 -20 76 -41 164 -21 88 -48 196 -61 240 -26 90 -24 98 41 188 38 50 51 57 59 30z" fill="#0c4937"/>
<path d="M3657 3501 c-59 -59 -107 -112 -107 -116 0 -14 108 -131 170 -185 l61 -52 59 56 c33 31 85 84 117 117 l58 61 -118 114 c-65 63 -121 114 -126 114 -4 0 -55 -49 -114 -109z" fill="#0c4937"/>
</g>
</svg>