<svg xmlns="http://www.w3.org/2000/svg" version="1.0" width="595.000000pt" height="419.000000pt" viewBox="0 0 595.000000 419.000000" preserveAspectRatio="xMidYMid meet" transform="matrix(1, 0, 0, 1, 0, 0)">
<metadata fill="#0c4937">
Created by potrace 1.16, written by Peter Selinger 2001-2019
</metadata>
<g transform="translate(0.000000,419.000000) scale(0.100000,-0.100000)" fill="#0c4937" stroke="none">
<path d="M2053 3930 c-22 -9 -23 -14 -23 -132 0 -115 15 -236 40 -318 17 -59 13 -76 -22 -91 -37 -15 -214 -131 -272 -178 -287 -231 -499 -559 -584 -901 -43 -173 -46 -203 -46 -415 0 -207 3 -230 43 -415 11 -49 46 -163 61 -195 5 -11 20 -47 34 -81 71 -174 197 -355 361 -520 215 -217 521 -384 800 -438 44 -9 107 -22 140 -29 81 -16 418 -16 515 1 425 75 771 276 1054 611 121 144 221 329 296 551 66 194 99 514 71 681 -5 30 -15 86 -21 124 -31 181 -73 305 -162 479 -146 287 -371 522 -663 694 -38 23 -76 45 -83 50 -10 7 -7 28 12 103 20 77 43 253 39 307 0 6 -1 32 -2 56 -1 40 -4 45 -32 55 -65 23 -155 9 -243 -36 -114 -59 -281 -235 -404 -428 l-32 -50 -95 1 -95 0 -53 77 c-200 292 -397 448 -562 446 -27 0 -60 -4 -72 -9z m202 -106 c88 -42 194 -143 296 -280 99 -133 105 -148 67 -159 -73 -20 -180 -80 -240 -134 -30 -26 -26 -51 11 -71 16 -8 27 -3 61 25 86 72 267 135 385 135 112 0 279 -56 369 -125 23 -17 47 -34 54 -39 17 -10 52 21 52 45 0 31 -123 110 -253 163 -44 18 -43 20 26 116 124 171 243 285 342 330 58 27 118 41 128 31 13 -13 2 -191 -16 -281 -45 -222 -160 -435 -340 -633 l-68 -75 16 -38 16 -38 68 68 c38 38 82 86 98 107 15 21 32 39 36 39 8 0 89 -165 102 -210 4 -14 16 -43 25 -65 35 -80 69 -173 90 -250 31 -109 50 -194 50 -221 0 -17 5 -46 11 -63 17 -49 1 -57 -57 -28 -117 60 -369 208 -376 222 -5 8 -17 40 -27 72 -84 263 -315 773 -350 773 -7 0 -150 -280 -185 -362 -9 -21 -22 -53 -30 -70 -43 -102 -114 -290 -142 -375 -16 -51 -19 -54 -102 -100 -47 -27 -102 -57 -121 -68 -92 -52 -209 -115 -215 -115 -9 0 -7 98 3 139 6 20 17 70 26 111 9 41 20 84 25 95 5 11 14 38 21 60 13 44 97 258 130 332 12 27 28 62 35 80 21 46 29 47 59 11 63 -76 156 -168 169 -168 7 0 19 14 26 31 13 30 12 32 -41 87 -30 31 -56 59 -59 62 -39 37 -151 208 -191 290 -73 149 -81 172 -103 280 -39 195 -46 276 -25 297 14 14 77 -1 144 -33z m-99 -566 c20 -40 47 -89 60 -110 13 -21 24 -45 24 -54 0 -9 -18 -54 -40 -100 -22 -47 -40 -87 -40 -89 0 -3 -9 -24 -19 -48 -64 -141 -141 -378 -170 -517 -30 -150 -41 -320 -21 -320 15 0 93 41 281 146 92 52 172 94 178 94 14 0 14 -70 1 -141 -15 -73 -15 -459 0 -539 17 -102 31 -169 52 -254 10 -43 17 -81 14 -83 -3 -3 -33 20 -68 51 -158 141 -323 243 -516 321 -185 75 -308 101 -582 123 l-85 7 -3 140 c-3 143 12 277 44 393 9 31 19 71 24 87 28 110 121 301 209 430 99 148 219 275 366 385 65 49 226 149 242 149 7 1 29 -31 49 -71z m1473 36 c216 -119 422 -314 563 -534 162 -254 244 -522 253 -830 8 -278 -40 -502 -160 -745 -186 -378 -489 -655 -882 -805 -170 -64 -188 -65 -234 -2 -79 105 -108 174 -129 307 -16 106 2 201 74 384 71 179 90 239 111 341 9 47 22 108 28 135 17 74 16 552 -2 638 -8 39 -10 72 -5 77 5 4 65 -24 134 -62 69 -38 176 -97 239 -131 l114 -60 -7 104 c-16 243 -104 547 -251 865 -54 116 -54 120 -1 210 25 43 46 82 46 87 0 10 31 57 38 57 3 0 35 -16 71 -36z m-740 -323 c105 -208 231 -529 231 -587 0 -27 -41 -51 -125 -75 -71 -20 -276 -18 -335 3 -88 32 -120 48 -120 62 0 60 267 696 292 696 4 0 30 -44 57 -99z m-250 -735 c111 -35 278 -37 385 -5 39 11 75 25 80 30 14 13 46 11 51 -3 3 -7 12 -65 20 -128 31 -240 12 -570 -46 -765 -45 -156 -68 -216 -118 -320 -64 -131 -156 -275 -176 -275 -38 0 -243 381 -275 512 -5 18 -15 58 -23 88 -23 84 -45 222 -57 357 -11 125 -4 281 22 461 13 95 -2 90 137 48z m-1159 -591 c195 -28 353 -79 529 -173 425 -224 729 -617 835 -1076 28 -118 29 -116 -65 -116 -181 0 -478 73 -649 160 -210 106 -410 267 -551 442 -98 122 -135 179 -194 298 -75 154 -160 438 -140 470 9 14 112 12 235 -5z m1483 -966 c11 -101 49 -208 102 -291 25 -38 45 -73 45 -77 0 -13 -19 -18 -93 -26 l-66 -7 -6 38 c-8 45 -58 242 -76 295 -11 35 -10 39 27 92 22 31 44 55 49 53 6 -1 14 -36 18 -77z" fill="#0c4937"/>
<path d="M2742 2627 c-45 -45 -82 -86 -82 -91 0 -13 162 -176 175 -176 6 0 49 39 95 86 l83 85 -89 90 c-49 49 -91 89 -94 89 -3 0 -42 -37 -88 -83z" fill="#0c4937"/>
</g>
</svg>